<?xml version="1.0" encoding="utf-8"?>
<!-- Generator: Adobe Illustrator 19.0.1, SVG Export Plug-In . SVG Version: 6.00 Build 0)  -->
<svg version="1.1" id="_x31_" xmlns="http://www.w3.org/2000/svg" xmlns:xlink="http://www.w3.org/1999/xlink" x="0px" y="0px"
	 width="58px" height="58px" viewBox="0 0 58 58" style="enable-background:new 0 0 58 58;" xml:space="preserve">
<path style="fill:#424242;" d="M42.7,37.5h-21c-1,0-1.5-0.8-1.6-1.5c-0.1-1,0.7-1.8,2.2-2c6.4-1.1,20.5-3.2,20.6-3.3
	c0.7-0.1,1.3-0.7,1.3-1.5l0.3-9.7c0-0.8-0.6-1.5-1.4-1.6l-24.4-1.6l-1.4-3.7c-0.2-0.6-0.8-1-1.4-1H9.3c-0.8,0-1.5,0.7-1.5,1.5
	c0,0.8,0.7,1.5,1.5,1.5h5.3L21,31.2C18,32,16.9,34.3,17,36.3c0.2,2.4,2.2,4.3,4.6,4.3h21c0.8,0,1.5-0.7,1.5-1.5S43.5,37.5,42.7,37.5
	z M28.8,25.6l5.2,0l0.3,3.4c-1.5,0.2-3.1,0.5-4.7,0.7L28.8,25.6z M33.9,24l-5.4,0l-0.8-4l5.9,0.4L33.9,24z M27.3,25.6l0.9,4.3
	c-1.5,0.2-2.9,0.5-4.1,0.7l-1.9-5L27.3,25.6z M35.9,28.7l-0.3-3.2l5.6,0l-0.1,2.4C40,28.1,38.1,28.4,35.9,28.7z M41.2,24l-5.8,0
	l-0.3-3.5l6.2,0.4L41.2,24z M26.1,20l0.8,4.1l-5.4,0l-1.7-4.5L26.1,20z M24.9,44.8c0,1.5-1.2,2.8-2.8,2.8c-1.5,0-2.8-1.2-2.8-2.8
	c0-1.5,1.2-2.8,2.8-2.8C23.7,42.1,24.9,43.3,24.9,44.8z M43.3,44.8c0,1.5-1.2,2.8-2.8,2.8c-1.5,0-2.8-1.2-2.8-2.8
	c0-1.5,1.2-2.8,2.8-2.8C42,42.1,43.3,43.3,43.3,44.8z"/>
</svg>
